static_grf.mot
version=1
nRows=20
nColumns 19
inDegrees=yes
endheader
time	1_ground_force_vx	1_ground_force_vy	1_ground_force_vz	1_ground_force_px	1_ground_force_py	1_ground_force_pz	1_ground_torque_x	1_ground_torque_y	1_ground_torque_z	2_ground_force_vx	2_ground_force_vy	2_ground_force_vz	2_ground_force_px	2_ground_force_py	2_ground_force_pz	2_ground_torque_x	2_ground_torque_y	2_ground_torque_z
            1.464000	           -3.483966	          360.553371	          -45.769958	           -0.256279	            0.006266	           -0.416223	           -0.049538	            5.126691	           -0.650801	            1.179392	          535.172825	           46.068101	           -0.274447	            0.005384	           -0.667157	           -0.010718	           -4.863489	           -0.418653
            1.464500	           -3.574903	          360.191643	          -45.496141	           -0.256583	            0.006266	           -0.416407	           -0.050900	            5.128493	           -0.647785	            1.135907	          534.251557	           46.158691	           -0.274735	            0.005382	           -0.666834	           -0.010261	           -4.826087	           -0.416968
            1.465000	           -3.529824	          360.012732	          -45.818023	           -0.256731	            0.006266	           -0.416419	           -0.050316	            5.131824	           -0.653116	            1.180036	          534.988913	           46.020516	           -0.274538	            0.005383	           -0.667099	           -0.010649	           -4.827900	           -0.415303
            1.465500	           -3.575634	          359.832488	          -45.818682	           -0.256589	            0.006267	           -0.416555	           -0.051033	            5.135726	           -0.653949	            1.786529	          535.726838	           46.257525	           -0.274526	            0.005384	           -0.667130	           -0.016564	           -4.966943	           -0.428872
            1.466000	           -3.529353	          360.552576	          -45.586420	           -0.256548	            0.006265	           -0.416150	           -0.050288	            5.137300	           -0.649534	            1.036972	          535.723797	           46.351700	           -0.274648	            0.005383	           -0.667116	           -0.009391	           -4.851547	           -0.419764
            1.466500	           -3.438365	          360.013142	          -45.909962	           -0.256241	            0.006266	           -0.416272	           -0.049134	            5.144520	           -0.656045	            1.317989	          535.725481	           46.163868	           -0.274542	            0.005384	           -0.667261	           -0.011995	           -4.875790	           -0.420150
            1.467000	           -3.483948	          359.832505	          -45.818909	           -0.256394	            0.006266	           -0.416446	           -0.049066	            5.067677	           -0.645288	            1.180160	          534.987909	           46.302084	           -0.274497	            0.005383	           -0.666819	           -0.010674	           -4.838817	           -0.418789
            1.467500	           -3.667370	          360.733571	          -45.768730	           -0.256772	            0.006265	           -0.416199	           -0.051775	            5.092773	           -0.646155	            1.459724	          535.358879	           45.833998	           -0.274546	            0.005383	           -0.666938	           -0.013195	           -4.839329	           -0.414312
            1.468000	           -3.621851	          360.013304	          -45.955359	           -0.256446	            0.006267	           -0.416491	           -0.051000	            5.069436	           -0.647109	            1.368183	          534.804718	           46.207491	           -0.274504	            0.005383	           -0.667011	           -0.012521	           -4.894160	           -0.422859
            1.468500	           -3.346437	          360.553398	          -45.770299	           -0.256361	            0.006265	           -0.416218	           -0.047739	            5.143523	           -0.652942	            1.178789	          535.356525	           46.209542	           -0.274472	            0.005383	           -0.667039	           -0.010621	           -4.823636	           -0.416354
            1.469000	           -3.529743	          360.192831	          -45.771390	           -0.256244	            0.006267	           -0.416491	           -0.050504	            5.153706	           -0.654906	            1.222919	          536.093759	           46.071366	           -0.274485	            0.005385	           -0.667479	           -0.011049	           -4.843580	           -0.416252
            1.469500	           -3.483705	          360.372682	          -45.679019	           -0.256656	            0.006266	           -0.416240	           -0.049621	            5.133105	           -0.650646	            1.274421	          534.804882	           46.066747	           -0.274683	            0.005382	           -0.666763	           -0.011654	           -4.890749	           -0.421277
            1.470000	           -3.576287	          360.914868	          -45.997468	           -0.256167	            0.006265	           -0.416092	           -0.050474	            5.093800	           -0.649189	            1.035581	          536.092580	           46.212230	           -0.274528	            0.005384	           -0.667299	           -0.009221	           -4.773590	           -0.411493
            1.470500	           -3.392034	          359.832130	          -45.727425	           -0.256369	            0.006267	           -0.416641	           -0.048223	            5.115572	           -0.650086	            1.038966	          535.171313	           46.349729	           -0.274656	            0.005382	           -0.666909	           -0.009420	           -4.852495	           -0.420261
            1.471000	           -3.437503	          359.651235	          -45.590513	           -0.256385	            0.006268	           -0.416813	           -0.049060	            5.132896	           -0.650662	            1.132625	          535.171987	           46.255833	           -0.274794	            0.005382	           -0.667086	           -0.010326	           -4.879182	           -0.421716
            1.471500	           -3.254586	          359.652057	          -45.774392	           -0.256707	            0.006267	           -0.416671	           -0.046814	            5.173251	           -0.658421	            1.036328	          535.907709	           46.399285	           -0.274455	            0.005384	           -0.667173	           -0.009405	           -4.863692	           -0.421102
            1.472000	           -3.346173	          359.111272	          -45.776483	           -0.256357	            0.006268	           -0.416917	           -0.047559	            5.104054	           -0.650622	            1.132563	          535.172489	           46.115049	           -0.274549	            0.005383	           -0.667051	           -0.010330	           -4.881402	           -0.420623
            1.472500	           -3.575733	          360.373254	          -45.816363	           -0.256508	            0.006265	           -0.416208	           -0.050841	            5.123870	           -0.651428	            1.226283	          535.172660	           46.161937	           -0.274578	            0.005382	           -0.666878	           -0.011273	           -4.919700	           -0.424354
            1.473000	           -3.530051	          360.013125	          -45.909735	           -0.256144	            0.006266	           -0.416276	           -0.050526	            5.152867	           -0.657106	            1.366813	          535.173334	           46.114949	           -0.274549	            0.005383	           -0.666985	           -0.012471	           -4.882831	           -0.420745
            1.473500	           -3.437748	          360.372494	          -45.633281	           -0.256346	            0.006266	           -0.416233	           -0.048799	            5.115557	           -0.647773	            1.177419	          535.725141	           46.117000	           -0.274545	            0.005384	           -0.667224	           -0.010682	           -4.860130	           -0.418376
